<?xml version="1.0" encoding="UTF-8"?>
<svg version="1.1" xmlns="http://www.w3.org/2000/svg" width="587" height="601">
<path d="M0 0 C0.73168396 0.00054382 1.46336792 0.00108765 2.21722412 0.00164795 C27.33139303 0.08676688 55.45860472 3.71732337 74.7890625 21.5390625 C93.05757457 41.14226038 95.87827517 64.30732467 98.1875 89.8125 C98.40055475 92.0723732 98.61474055 94.33214006 98.83007812 96.59179688 C99.22410304 100.73302708 99.610574 104.87483201 99.9909668 109.01733398 C100.43649005 113.81051073 100.95288081 118.59239712 101.5 123.375 C102.345625 122.77171875 103.19125 122.1684375 104.0625 121.546875 C121.07039047 109.50924667 121.07039047 109.50924667 129.38671875 109.92578125 C133.24646963 110.74624585 134.87317523 112.42783074 137.5 115.375 C140.21689057 121.0557712 140.07823697 126.17047157 138.5 132.1875 C130.77723592 150.57334659 109.68715794 160.78322259 92.5 168.375 C64.09814498 179.86937789 34.27536387 184.75869826 3.77270508 184.69067383 C0.83311513 184.6875221 -2.1054558 184.71104926 -5.04492188 184.73632812 C-17.60315802 184.77707907 -29.68230499 183.69105257 -42.08085632 181.72998047 C-45.25385239 181.26438116 -48.43455078 180.93651998 -51.6267395 180.63334656 C-54.1208713 180.28937392 -56.20708771 179.39322148 -58.5 178.375 C-60.64016611 177.81135782 -62.78689375 177.27239471 -64.9375 176.75 C-89.26967721 170.46249654 -119.23596355 159.76838337 -134.09765625 138.0390625 C-137.57406922 131.89965909 -138.51060337 126.36134502 -137.5 119.375 C-136.00704191 115.19471736 -134.46904642 112.4697745 -130.5 110.375 C-124.74161768 108.8246663 -120.76181036 109.93120532 -115.5 112.375 C-112.75733486 113.97231134 -110.15962623 115.7400921 -107.5625 117.5625 C-103.73681036 120.72145604 -103.73681036 120.72145604 -99.5 122.375 C-99.40203125 121.15554688 -99.3040625 119.93609375 -99.203125 118.6796875 C-98.67229946 112.2414264 -98.09529533 105.80759237 -97.5 99.375 C-97.4321228 98.6405365 -97.36424561 97.906073 -97.29431152 97.14935303 C-96.83791543 92.2412351 -96.36310229 87.33524278 -95.87194824 82.43048096 C-95.70964598 80.79201436 -95.55140142 79.1531398 -95.39758301 77.51385498 C-93.30769848 55.34870542 -88.66802579 37.3995226 -72.5 21.375 C-71.93796875 20.77945313 -71.3759375 20.18390625 -70.796875 19.5703125 C-53.0031509 2.2448443 -23.40766689 -0.06631826 0 0 Z M-68.453125 30.03125 C-76.65875819 39.4270132 -81.47402562 51.96272177 -82.5 64.375 C-82.10668174 66.60614513 -82.10668174 66.60614513 -81.5 68.375 C-81.17 67.22 -80.84 66.065 -80.5 64.875 C-74.14500835 46.04759482 -63.27769703 30.36861975 -45.26953125 21.14453125 C-38.1997527 17.67764303 -31.07143217 14.57759845 -23.5 12.375 C-23.5 12.045 -23.5 11.715 -23.5 11.375 C-39.26450131 10.6515812 -57.36617042 19.1675227 -68.453125 30.03125 Z M123.0625 120.25 C122.340625 120.89453125 121.61875 121.5390625 120.875 122.203125 C119.28125111 123.66056642 117.69797486 125.12953681 116.125 126.609375 C89.80852015 151.1607251 60.09215294 165.75222702 24.5 171.375 C24.5 171.705 24.5 172.035 24.5 172.375 C30.55861113 172.56237973 36.01343186 171.92696156 41.9375 170.6875 C42.81003418 170.50670898 43.68256836 170.32591797 44.58154297 170.13964844 C75.93110913 163.45401889 108.47915439 149.11608721 128.63671875 123.19921875 C129.71395972 121.36691167 129.71395972 121.36691167 129.14453125 119.14453125 C128.93183594 118.56058594 128.71914063 117.97664063 128.5 117.375 C125.75449922 117.375 125.08809167 118.42233516 123.0625 120.25 Z M-126.5 118.375 C-126.05967297 123.47980832 -124.66928701 125.90957426 -121.1875 129.625 C-120.01767578 130.90117187 -120.01767578 130.90117187 -118.82421875 132.203125 C-116.7259228 134.16388559 -115.05846094 135.17766287 -112.5 136.375 C-112.17 137.035 -111.84 137.695 -111.5 138.375 C-110.51 138.705 -109.52 139.035 -108.5 139.375 C-107.37253895 140.53662654 -106.24544125 141.69860782 -105.12011719 142.86230469 C-98.50296524 149.04070636 -90.44542844 153.20138672 -82.3125 157 C-81.29857178 157.4758252 -80.28464355 157.95165039 -79.23999023 158.44189453 C-67.41154002 163.90668183 -55.78765274 167.45088739 -43.0625 170.1875 C-42.04293213 170.40712402 -41.02336426 170.62674805 -39.97290039 170.85302734 C-34.36504257 171.99387433 -29.22131021 172.61367206 -23.5 172.375 C-23.5 172.045 -23.5 171.715 -23.5 171.375 C-24.08676514 171.26019287 -24.67353027 171.14538574 -25.27807617 171.02709961 C-54.17910551 165.28392836 -82.09157436 156.78342564 -103.5 135.375 C-104.11875 135.271875 -104.7375 135.16875 -105.375 135.0625 C-108.45781062 134.06512009 -109.51093916 131.89057695 -111.5 129.375 C-112.44875 128.75625 -113.3975 128.1375 -114.375 127.5 C-117.68573862 125.24869774 -119.70183414 122.91749848 -122.10546875 119.765625 C-123.52581478 118.02194282 -123.52581478 118.02194282 -126.5 118.375 Z M-80.5 123.375 C-78.13203255 125.74296745 -76.43666275 126.20348836 -73.2578125 127.21484375 C-72.19046875 127.55580078 -71.123125 127.89675781 -70.0234375 128.24804688 C-68.34121094 128.77495117 -68.34121094 128.77495117 -66.625 129.3125 C-65.00078125 129.83360352 -65.00078125 129.83360352 -63.34375 130.36523438 C-15.03141647 145.67182692 35.34732487 141.93184712 82.5 124.375 C79.09697595 123.24065865 78.13682132 123.53299758 74.7734375 124.484375 C73.83298584 124.7431543 72.89253418 125.00193359 71.92358398 125.26855469 C70.91755127 125.55118164 69.91151855 125.83380859 68.875 126.125 C59.12960359 128.75198704 49.50724864 131.03876684 39.5 132.375 C38.3538623 132.5294458 38.3538623 132.5294458 37.18457031 132.68701172 C2.05195575 137.16164854 -33.42738105 134.69238146 -67.68847656 126.05419922 C-71.93326162 125.02875705 -76.20958271 124.18514914 -80.5 123.375 Z M-70.5 150.375 C-55.05465282 165.82034718 -16.74673069 165.14809698 3.5 165.375 C25.9450097 165.27737609 49.97249276 161.82081953 70.5 152.375 C67.37030147 151.33176716 66.54307096 151.38563623 63.46484375 152.08203125 C62.26480713 152.34246216 62.26480713 152.34246216 61.04052734 152.6081543 C60.18152832 152.79933838 59.3225293 152.99052246 58.4375 153.1875 C42.91757589 156.45595847 27.3351332 157.8111705 11.5 158.375 C10.31277344 158.41753906 9.12554687 158.46007812 7.90234375 158.50390625 C-16.25749918 158.89824536 -41.93823521 157.45755973 -65.28515625 150.92578125 C-67.60483858 150.25433635 -67.60483858 150.25433635 -70.5 150.375 Z " fill="#366D4E" transform="translate(294.5,146.625)"/>
<path d="M0 0 C1.95110535 1.76034548 3.93747919 3.44653073 5.96484375 5.1171875 C9.08067011 7.76926296 11.70517323 10.69827628 14.34765625 13.81640625 C16.4861067 16.29683562 18.72369378 18.66675295 20.96484375 21.0546875 C27.27456949 27.98676858 32.82260467 35.43954564 38.27734375 43.0546875 C38.71046875 43.65764648 39.14359375 44.26060547 39.58984375 44.88183594 C47.50490392 56.01857294 53.9840205 67.94473674 60.27734375 80.0546875 C60.80521484 81.06716553 60.80521484 81.06716553 61.34375 82.10009766 C79.86153928 118.15748757 87.5011794 159.09895415 87.52734375 199.3046875 C87.52835587 200.70580276 87.52835587 200.70580276 87.52938843 202.13522339 C87.51274917 216.66222979 86.82307516 230.72754796 84.27734375 245.0546875 C84.12700684 246.00311523 83.97666992 246.95154297 83.82177734 247.92871094 C75.78180868 298.57299955 51.67406406 345.78631596 16.8828125 383.23046875 C14.71906169 385.57588379 12.60868092 387.94909466 10.52734375 390.3671875 C7.73772217 393.60153137 4.76544231 396.58049581 1.66015625 399.51171875 C0.03479329 401.11957616 0.03479329 401.11957616 -0.72265625 404.0546875 C-2.63877552 404.99593907 -4.55767316 405.93205101 -6.49169922 406.8359375 C-8.81924944 408.10745541 -10.53270244 409.51129555 -12.48046875 411.3046875 C-24.27174423 421.85700973 -37.70968373 430.22297687 -51.52539062 437.84082031 C-53.5436028 438.95577042 -55.54806201 440.09191949 -57.55078125 441.234375 C-87.15486423 457.87124874 -121.21653024 466.25926565 -154.72265625 470.0546875 C-155.82996094 470.18746094 -156.93726563 470.32023438 -158.078125 470.45703125 C-227.43329599 477.28959195 -296.77452198 453.62679526 -350.59765625 410.4296875 C-364.79251809 398.5285076 -378.34121005 385.69676423 -389.72265625 371.0546875 C-390.51027344 370.07242187 -391.29789063 369.09015625 -392.109375 368.078125 C-407.6726482 348.51559204 -420.55273642 326.30926377 -429.72265625 303.0546875 C-430.03654297 302.27287109 -430.35042969 301.49105469 -430.67382812 300.68554688 C-457.24784474 233.81019513 -455.73171338 158.1805812 -427.72265625 92.0546875 C-415.89979576 64.71019451 -399.897934 40.39804781 -379.84765625 18.3984375 C-377.89770901 16.24776039 -375.99239496 14.06643779 -374.09765625 11.8671875 C-347.19991502 -18.92608867 -309.63319603 -40.73739849 -271.72265625 -54.9453125 C-270.99385254 -55.22117187 -270.26504883 -55.49703125 -269.51416016 -55.78125 C-248.44863594 -63.63767445 -226.04407898 -67.76271644 -203.72265625 -69.9453125 C-202.96823242 -70.02120605 -202.21380859 -70.09709961 -201.43652344 -70.17529297 C-128.09765739 -77.0912376 -53.85733515 -49.17778786 0 0 Z M-261.72265625 -44.9453125 C-262.42438965 -44.72335205 -263.12612305 -44.5013916 -263.84912109 -44.27270508 C-299.56637525 -32.72493332 -331.70256863 -11.76283711 -358.72265625 14.0546875 C-359.59792969 14.88871094 -360.47320312 15.72273438 -361.375 16.58203125 C-366.46224697 21.54386073 -371.08263994 26.72938196 -375.51171875 32.28515625 C-376.96042429 34.09987751 -378.43379613 35.89523976 -379.93359375 37.66796875 C-386.18483643 45.07075614 -391.51484775 52.90443556 -396.72265625 61.0546875 C-397.44066406 62.158125 -398.15867187 63.2615625 -398.8984375 64.3984375 C-435.18240162 121.48254955 -444.8353478 192.45602395 -430.72265625 258.0546875 C-416.92612537 315.49673027 -384.72489723 370.73676646 -336.37011719 405.85595703 C-334.70407177 407.06821 -333.0607891 408.30729113 -331.41796875 409.55078125 C-279.46338466 448.33739634 -210.44032664 465.52449998 -146.31933594 456.53125 C-143.44522552 456.07854038 -140.58447656 455.57942585 -137.72265625 455.0546875 C-136.66353027 454.86132812 -135.6044043 454.66796875 -134.51318359 454.46875 C-89.57136229 445.95719068 -46.72600753 426.18703356 -12.94140625 395.08984375 C-10.94566526 393.2592433 -8.91035014 391.49632267 -6.84765625 389.7421875 C2.42343092 381.63232741 10.74287069 372.79406488 18.27734375 363.0546875 C18.95748535 362.1891626 18.95748535 362.1891626 19.65136719 361.30615234 C27.70270708 351.03625687 34.7786553 340.36860892 41.27734375 329.0546875 C41.67018555 328.3735791 42.06302734 327.6924707 42.46777344 326.99072266 C60.55465765 295.25001409 71.74481183 258.52458602 74.27734375 222.0546875 C74.37789062 220.66902588 74.37789062 220.66902588 74.48046875 219.25537109 C76.29367076 192.46269621 74.54313027 166.17671007 68.27734375 140.0546875 C68.07737793 139.19456055 67.87741211 138.33443359 67.67138672 137.44824219 C59.48103998 102.54192705 43.43741724 67.54550644 20.27734375 40.0546875 C19.34051739 38.91718395 18.4043461 37.77914065 17.46875 36.640625 C13.15237465 31.42866025 8.76468121 26.35649076 3.8828125 21.66015625 C2.09430524 19.87164899 0.47510042 17.9839229 -1.16015625 16.0546875 C-4.71219095 11.96399259 -8.54230893 8.49303973 -12.72265625 5.0546875 C-13.48811768 4.42071045 -13.48811768 4.42071045 -14.26904297 3.77392578 C-29.47988377 -8.78015225 -45.17177233 -19.90025835 -62.72265625 -28.9453125 C-64.00970459 -29.61626953 -64.00970459 -29.61626953 -65.32275391 -30.30078125 C-94.11650422 -45.16878901 -124.60884691 -53.51050882 -156.72265625 -56.9453125 C-157.91117187 -57.07808594 -159.0996875 -57.21085937 -160.32421875 -57.34765625 C-163.46068412 -57.64347275 -166.57446119 -57.82450967 -169.72265625 -57.9453125 C-170.40779297 -57.97254395 -171.09292969 -57.99977539 -171.79882812 -58.02783203 C-202.43788336 -59.06966475 -232.58855729 -54.2562101 -261.72265625 -44.9453125 Z " fill="#8D5D4C" transform="translate(474.72265625,101.9453125)"/>
<path d="M0 0 C1.34070557 0.31445068 1.34070557 0.31445068 2.70849609 0.63525391 C40.85219329 9.66873844 76.3435777 27.74320516 107 52 C107.98097656 52.76828125 108.96195312 53.5365625 109.97265625 54.328125 C126.33574862 67.4185989 142.2595752 82.34804126 155 99 C155.44375977 99.56734863 155.88751953 100.13469727 156.34472656 100.71923828 C192.98011891 147.57241247 217.91639996 207.55276295 218.203125 267.6328125 C218.21018463 268.6193129 218.21724426 269.60581329 218.22451782 270.62220764 C218.44862994 311.12460148 218.44862994 311.12460148 215 329 C214.67805664 330.73950928 214.67805664 330.73950928 214.34960938 332.51416016 C211.86341119 345.79271865 209.34076045 359.13223193 204.76318359 371.87451172 C204.20297333 373.43471342 203.65565819 374.99956096 203.11572266 376.56689453 C191.63809079 409.79951491 174.50907694 442.95036011 150.16015625 468.69921875 C148.34093767 470.63686747 146.60695793 472.61041814 144.875 474.625 C133.18166527 488.03084548 120.37634932 500.51649086 106 511 C104.58847656 512.10408203 104.58847656 512.10408203 103.1484375 513.23046875 C87.35046466 525.52503439 69.91596627 535.17203849 52 544 C50.94014893 544.52352051 50.94014893 544.52352051 49.85888672 545.05761719 C13.94308692 562.49176398 -26.97742664 570.21802426 -66.6875 570.25 C-67.4504538 570.25067474 -68.21340759 570.25134949 -68.9994812 570.25204468 C-83.16328199 570.23233 -97.00032435 569.25022229 -111 567 C-112.07008301 566.82839355 -113.14016602 566.65678711 -114.24267578 566.47998047 C-168.59733346 557.45983188 -224.27673504 532.99101443 -263.1015625 492.8984375 C-265.01169571 490.98830429 -267.00148906 489.24514719 -269.0625 487.5 C-272.40054439 484.62215202 -275.27244726 481.55571976 -278.11328125 478.19140625 C-279.42687072 476.66568432 -280.78229952 475.17541402 -282.16796875 473.71484375 C-331.77842385 421.3527484 -355.79795594 346.79113872 -355.15234375 275.55859375 C-353.99841532 233.81690166 -345.16446386 193.66693511 -327 156 C-326.6596875 155.28376465 -326.319375 154.5675293 -325.96875 153.82958984 C-315.70269782 132.27990317 -302.57643896 112.10089631 -287 94 C-286.05623124 92.87328322 -285.1135951 91.74561712 -284.171875 90.6171875 C-275.50170464 80.28680161 -266.33428212 70.69754499 -256 62 C-255.16597656 61.27683594 -254.33195312 60.55367188 -253.47265625 59.80859375 C-234.21008296 43.34688846 -212.92222921 29.76932523 -190 19 C-189.3395166 18.68111816 -188.6790332 18.36223633 -187.99853516 18.03369141 C-130.1179671 -9.83370479 -62.09101999 -15.17586253 0 0 Z M-149 14 C-149.75764648 14.22381348 -150.51529297 14.44762695 -151.29589844 14.67822266 C-178.82999706 22.87478959 -204.80595988 36.13688736 -228 53 C-229.04414063 53.74894531 -230.08828125 54.49789062 -231.1640625 55.26953125 C-243.46399039 64.27541513 -254.5164473 74.32875923 -265.3125 85.0625 C-266.23144043 85.97217529 -267.15038086 86.88185059 -268.09716797 87.8190918 C-284.31323501 104.10984002 -297.6113789 123.08440768 -309 143 C-309.45084961 143.78648926 -309.90169922 144.57297852 -310.36621094 145.38330078 C-346.56057804 209.38490876 -353.69366903 286.18219997 -334.81640625 356.73046875 C-323.10625374 398.2866663 -302.59001744 435.7140962 -274 468 C-272.71416016 469.46953125 -272.71416016 469.46953125 -271.40234375 470.96875 C-227.15942075 520.48954746 -162.01651459 552.80843895 -96 559 C-94.93136719 559.10957031 -93.86273438 559.21914063 -92.76171875 559.33203125 C-21.49402112 565.38534645 47.49013108 543.90608961 103.625 500.125 C104.20540039 499.67253906 104.78580078 499.22007812 105.38378906 498.75390625 C111.3811981 494.26917889 111.3811981 494.26917889 115 488 C115.83917969 487.608125 116.67835938 487.21625 117.54296875 486.8125 C122.3028096 484.31694503 125.58149425 480.8221676 129.3125 477 C130.07014648 476.23107422 130.82779297 475.46214844 131.60839844 474.66992188 C137.10561362 469.03793625 142.21611394 463.25262301 147 457 C148.01180493 455.72689729 149.02493014 454.45484325 150.0390625 453.18359375 C195.89272126 395.17521644 215.08755208 319.30258025 206.875 246.1875 C202.8677147 215.30869282 193.83865688 184.90368869 180 157 C179.43659912 155.84081055 179.43659912 155.84081055 178.86181641 154.65820312 C168.50840197 133.48733116 155.04265114 113.5876988 139.06640625 96.25 C137.24386514 94.2655318 135.49216442 92.24214108 133.75 90.1875 C125.32798078 80.55676505 116.10598805 71.83861894 106 64 C104.73416061 62.99375922 103.46855135 61.98722891 102.203125 60.98046875 C31.677072 5.38816548 -63.11909929 -12.12672185 -149 14 Z " fill="#8F604F" transform="translate(362,21)"/>
<path d="M0 0 C0.7880603 -0.00701431 1.57612061 -0.01402863 2.38806152 -0.02125549 C4.92413107 -0.03867937 7.4599665 -0.04511012 9.99609375 -0.046875 C10.8656369 -0.04754974 11.73518005 -0.04822449 12.631073 -0.04891968 C34.54612085 -0.0219546 55.2060396 2.71643777 76.43359375 8.203125 C78.16029297 8.64591797 78.16029297 8.64591797 79.921875 9.09765625 C114.23883591 18.8452755 146.76731642 37.66314785 172.74609375 61.953125 C175.6337071 64.64770553 178.52021592 67.29857087 181.578125 69.796875 C183.90878407 71.76087772 185.85593057 73.63371797 187.80859375 75.953125 C189.59076292 78.04979462 191.36895076 80.1330133 193.234375 82.15625 C217.54227604 108.52755465 234.56008772 141.92028549 244.43359375 176.203125 C244.6857666 177.07517578 244.93793945 177.94722656 245.19775391 178.84570312 C262.4986108 240.0228397 253.55148205 308.14390023 222.94213867 363.6105957 C214.17570323 379.03946533 204.25473255 392.98782647 192.43359375 406.203125 C191.63953125 407.10804688 190.84546875 408.01296875 190.02734375 408.9453125 C181.14950256 418.97977384 171.82990338 427.76723386 161.18310547 435.859375 C159.53004238 437.12904556 157.90261786 438.42459219 156.28125 439.734375 C108.65252002 477.6932115 44.4004804 493.62372532 -15.62890625 487.078125 C-63.88141789 481.12586944 -108.71730134 462.02203464 -145.56640625 430.203125 C-146.35789062 429.5225 -147.149375 428.841875 -147.96484375 428.140625 C-159.04346278 418.388572 -169.64323961 407.9811071 -178.56640625 396.203125 C-179.04932129 395.56955078 -179.53223633 394.93597656 -180.02978516 394.28320312 C-188.49892722 383.10216414 -195.885742 371.53252468 -202.56640625 359.203125 C-202.93604492 358.52572266 -203.30568359 357.84832031 -203.68652344 357.15039062 C-221.65120848 323.87019068 -229.81530406 286.75224955 -231.56640625 249.203125 C-231.62699219 247.92953125 -231.68757813 246.6559375 -231.75 245.34375 C-231.82046616 241.94479422 -231.72931294 238.59937533 -231.56640625 235.203125 C-231.53063477 234.37184082 -231.49486328 233.54055664 -231.45800781 232.68408203 C-228.97507719 180.33411788 -210.24028144 131.04546899 -177.56640625 90.203125 C-176.7465625 89.17574219 -175.92671875 88.14835937 -175.08203125 87.08984375 C-164.31864397 73.87675827 -152.13278676 61.53254238 -138.56640625 51.203125 C-137.69757813 50.50574219 -136.82875 49.80835938 -135.93359375 49.08984375 C-126.72305474 41.8676523 -116.70339691 36.01733915 -106.56640625 30.203125 C-105.83228516 29.77966797 -105.09816406 29.35621094 -104.34179688 28.91992188 C-93.60811611 22.79066127 -82.50920343 18.23049116 -70.89038086 14.04614258 C-68.73135822 13.26296103 -66.5861116 12.45029943 -64.44140625 11.62890625 C-44.26024486 4.05939585 -21.54154383 0.12963773 0 0 Z M-162.02368164 82.79882812 C-206.9957977 131.47338646 -225.86159596 194.78935717 -223.65429688 260.08685303 C-221.77029856 305.45065403 -204.02534864 352.87657677 -175.56640625 388.203125 C-174.85097656 389.10933594 -174.13554687 390.01554687 -173.3984375 390.94921875 C-161.60627383 405.66333448 -148.54797604 419.71294447 -133.56640625 431.203125 C-132.64142334 431.91807129 -132.64142334 431.91807129 -131.69775391 432.64746094 C-81.24157387 471.34721673 -18.73006587 486.73754094 44.05859375 479.015625 C90.69829055 472.67230444 134.03185595 452.2494285 168.43359375 420.203125 C169.82504041 418.98974281 171.22068014 417.78114697 172.62109375 416.578125 C179.49824591 410.55373971 185.42806202 404.06374956 191.10009766 396.88720703 C192.03238324 395.70981671 192.97000576 394.53664149 193.91162109 393.36669922 C220.03345292 360.83870208 237.03486529 322.44720752 243.43359375 281.203125 C243.7107019 279.46192383 243.7107019 279.46192383 243.9934082 277.68554688 C245.50766384 267.11064746 245.77355937 256.65250972 245.74926758 245.97851562 C245.74612039 243.10247359 245.76962129 240.22747753 245.79492188 237.3515625 C245.85472219 220.07489154 244.15721353 202.94904267 239.74609375 186.203125 C239.48973145 185.21368896 239.23336914 184.22425293 238.96923828 183.20483398 C228.95413492 145.76884232 210.44684129 110.91330881 183.79296875 82.71875 C181.84702594 80.64393681 180.03301831 78.5377629 178.24609375 76.328125 C175.67444321 73.26592841 172.74216651 71.02581947 169.4609375 68.7578125 C166.88693829 66.78391715 164.71572119 64.50618939 162.43359375 62.203125 C93.39977152 0.91681715 -11.26433284 -9.04405461 -162.02368164 82.79882812 Z " fill="#956957" transform="translate(282.56640625,57.796875)"/>
<path d="M0 0 C4.23041383 0.30434632 6.12033328 1.75457279 8.89428711 4.89746094 C9.34167236 5.42629883 9.78905762 5.95513672 10.25 6.5 C11.21276962 7.60077588 12.17764064 8.69971712 13.14453125 9.796875 C13.62229004 10.34150391 14.10004883 10.88613281 14.59228516 11.44726562 C16.60032772 13.6621721 18.76588339 15.6968352 20.9375 17.75 C26.19723198 22.92504935 29.77690082 28.90984838 30.1875 36.4375 C30.01398493 39.7342863 29.86393622 41.35124853 28 44 C27.01 44.66 26.02 45.32 25 46 C25.495 47.98 25.495 47.98 26 50 C18.8162852 54.94878131 13.63994236 55.91243812 5 55 C-0.57247484 53.67250887 -5.90685628 51.53613405 -11.25 49.5 C-12.6881474 48.96827801 -14.12694723 48.43831718 -15.56640625 47.91015625 C-19.05201375 46.62695081 -22.52823429 45.32026692 -26 44 C-26 42.68 -26 41.36 -26 40 C-24.046875 40.52083333 -22.09375 41.04166667 -20.140625 41.5625 C-17.71098139 42.13349349 -17.71098139 42.13349349 -14 42 C-15.03898437 41.61328125 -16.07796875 41.2265625 -17.1484375 40.828125 C-38.91942742 32.70844504 -38.91942742 32.70844504 -48 28 C-48 27.01 -48 26.02 -48 25 C-41.37454925 25.67953341 -35.55212359 28.35175352 -30 31.9375 C-25.45676772 33.54656143 -22.29014651 31.79777568 -18 30 C-12.83623874 28.27874625 -6.98066092 28.04452681 -1.7578125 29.71875 C1.3184553 31.30155999 2.81063325 32.44452421 3.9375 35.75 C3.958125 36.4925 3.97875 37.235 4 38 C0.8745041 40.64465038 -2.08788267 41.84414715 -6 43 C-5.67 43.66 -5.34 44.32 -5 45 C-3.6078125 44.071875 -3.6078125 44.071875 -2.1875 43.125 C2.55834181 40.37123994 7.62989339 39.7380255 13 39 C13 38.34 13 37.68 13 37 C13.66 37 14.32 37 15 37 C14.505 36.154375 14.01 35.30875 13.5 34.4375 C11.66316973 30.39317865 12.11676159 26.99670842 12.4375 22.625 C12.62089109 16.97405601 12.62089109 16.97405601 9.85546875 12.23828125 C7.18737339 9.91874027 7.18737339 9.91874027 4.3828125 8.02734375 C1.50922631 5.58244009 0.89134483 3.61148334 0 0 Z " fill="#427457" transform="translate(243,362)"/>
<path d="M0 0 C4.23669203 0.49193817 6.6734419 3.12012526 9.625 5.9375 C10.14989014 6.42677979 10.67478027 6.91605957 11.21557617 7.42016602 C14.67688699 10.66922911 18.00389953 14.03263091 21.3125 17.4375 C26.97931336 23.14957545 32.19264254 26.08799409 40 28 C39.67 27.67 39.34 27.34 39 27 C39 26.01 39 25.02 39 24 C39.66 24 40.32 24 41 24 C40.48050781 23.62488281 39.96101563 23.24976563 39.42578125 22.86328125 C33.88849568 18.79987576 28.98415938 14.66170018 25 9 C30.82155787 9 33.1305191 12.2810115 37.34375 16.03125 C39.98454262 18.39696904 39.98454262 18.39696904 44 18 C44 17.01 44 16.02 44 15 C44.99 14.67 45.98 14.34 47 14 C48.41152344 15.33804687 48.41152344 15.33804687 49.8515625 16.703125 C51.10916165 17.8856436 52.36698614 19.06792259 53.625 20.25 C54.24246094 20.83652344 54.85992187 21.42304688 55.49609375 22.02734375 C58.32059938 24.67345955 61.07949583 27.1600594 64.33203125 29.26953125 C67.29009578 31.18815875 68.88367623 33.20099115 71 36 C71.7425 36.721875 72.485 37.44375 73.25 38.1875 C86.30860616 51.54289266 86.30860616 51.54289266 86.25 61.125 C86.25773437 62.39730469 86.25773437 62.39730469 86.265625 63.6953125 C86 66 86 66 84 69 C79.15175132 68.58443583 77.11963138 66.62551755 74 63 C72.41628254 60.25938255 71.66135396 57.95218563 71.3125 54.8125 C71.17521484 53.62527344 71.17521484 53.62527344 71.03515625 52.4140625 C70.99834962 49.88667409 71.54484784 48.0964049 72.25 45.6875 C72.73553944 43.41722506 72.73553944 43.41722506 72 41 C67.36830518 34.85934568 60.68152848 29.70635731 54 26 C53.67 26.66 53.34 27.32 53 28 C52.34 28 51.68 28 51 28 C51 28.99 51 29.98 51 31 C48.03824877 30.38722388 46.61941217 29.74627478 44 28 C44.40992188 28.61746094 44.81984375 29.23492187 45.2421875 29.87109375 C48.88225796 35.59244851 50.91991608 40.30347972 52 47 C48.50000261 48.56382862 46.4146433 49.47476104 42.70703125 48.23046875 C37.3425461 45.39996151 32.26406359 41.97918241 30.33984375 35.921875 C30.10394531 35.14328125 29.86804688 34.3646875 29.625 33.5625 C25.51880291 22.36378067 12.85868518 13.51507998 4 6 C1.5 3.6875 1.5 3.6875 0 2 C0 1.34 0 0.68 0 0 Z " fill="#4A785D" transform="translate(146,312)"/>
<path d="M0 0 C1.32 0.33 2.64 0.66 4 1 C1.40273167 5.78444166 -1.88047386 9.30826813 -6.12890625 12.69921875 C-8.7264775 15.8933095 -8.46703545 18.17887869 -8.5 22.25 C-8.67434009 28.50133765 -9.74689919 32.64812447 -13 38 C-13 38.66 -13 39.32 -13 40 C-12.23816406 39.94199219 -11.47632813 39.88398438 -10.69140625 39.82421875 C-2.97093381 39.48686977 1.65129863 40.65839929 8 45 C9.90810862 46.2249274 9.90810862 46.2249274 11.75585938 45.56274414 C12.44486328 45.30614014 13.13386719 45.04953613 13.84375 44.78515625 C14.59527344 44.51123047 15.34679687 44.23730469 16.12109375 43.95507812 C16.90613281 43.66052734 17.69117188 43.36597656 18.5 43.0625 C20.05107967 42.48816754 21.60312195 41.91642613 23.15625 41.34765625 C23.84525391 41.08992432 24.53425781 40.83219238 25.24414062 40.56665039 C27 40 27 40 29 40 C29 41.32 29 42.64 29 44 C24.95875794 45.45951184 20.91693218 46.91740056 16.875 48.375 C15.73289062 48.7875 14.59078125 49.2 13.4140625 49.625 C12.30546875 50.02460938 11.196875 50.42421875 10.0546875 50.8359375 C9.03874512 51.20251465 8.02280273 51.5690918 6.97607422 51.94677734 C-1.06483247 54.79242718 -8.20431893 56.7983804 -16.5 53.6875 C-20.63424125 50.89688716 -20.63424125 50.89688716 -22 49 C-22 47.68 -22 46.36 -22 45 C-22.99 44.67 -23.98 44.34 -25 44 C-27.72429033 39.91356451 -27.61022037 36.79570621 -27 32 C-24.19918622 22.69349853 -16.14909591 15.83381655 -8.96484375 9.7734375 C-5.66494864 6.79500334 -2.83737641 3.4137185 0 0 Z " fill="#4A7B5E" transform="translate(346,362)"/>
<path d="M0 0 C3.15222655 1.1060444 5.93481285 2.50493873 8.77734375 4.234375 C9.45603516 4.64300781 10.13472656 5.05164063 10.83398438 5.47265625 C12.24046772 6.32673248 13.63897843 7.19407318 15.02929688 8.07421875 C19.2324937 10.59222374 19.2324937 10.59222374 24.0234375 10.55859375 C28.40099052 8.26641048 32.54920428 5.69439179 36.69726562 3.01367188 C38.42103254 1.93566658 40.20765252 0.95966572 42 0 C42.99 0.33 43.98 0.66 45 1 C45.495 2.485 45.495 2.485 46 4 C40.39722251 7.77409317 34.75234036 11.45768687 29 15 C32.12636097 17.47378922 35.38327118 19.40919797 38.875 21.328125 C40.02613281 21.96363281 41.17726563 22.59914063 42.36328125 23.25390625 C43.57540498 23.91948186 44.78764502 24.58484571 46 25.25 C54.73586052 30.05316459 63.41406608 34.93256922 72 40 C71.34 41.65 70.68 43.3 70 45 C64.23556113 43.41078276 59.43475505 40.55440541 54.3125 37.5625 C53.39855469 37.03696533 52.48460937 36.51143066 51.54296875 35.9699707 C46.85697363 33.26995647 42.20085811 30.52705252 37.57421875 27.7265625 C36.71981201 27.21536865 35.86540527 26.7041748 34.98510742 26.17749023 C33.35915872 25.20262385 31.74043479 24.21557894 30.13012695 23.21508789 C26.08568114 20.74644821 26.08568114 20.74644821 21.5234375 19.91015625 C17.5795608 21.61347142 13.86195238 23.63511725 10.125 25.75 C9.26527588 26.22791992 8.40555176 26.70583984 7.51977539 27.19824219 C2.54516622 29.97215802 -2.39559787 32.8015276 -7.32421875 35.65625 C-8.36400879 36.25469727 -9.40379883 36.85314453 -10.47509766 37.46972656 C-12.51271673 38.6446687 -14.54509737 39.82874874 -16.57177734 41.02246094 C-17.49812988 41.55645508 -18.42448242 42.09044922 -19.37890625 42.640625 C-20.1994751 43.12047852 -21.02004395 43.60033203 -21.86547852 44.09472656 C-24 45 -24 45 -27 44 C-27.6875 41.9375 -27.6875 41.9375 -28 40 C-25.94921875 38.828125 -25.94921875 38.828125 -23.8984375 37.65625 C-23.02195557 37.15528809 -22.14547363 36.65432617 -21.24243164 36.13818359 C-19.32274703 35.04145446 -17.4026588 33.94543153 -15.48217773 32.85009766 C-11.21170407 30.41342197 -6.94344017 27.97436753 -2.69921875 25.4921875 C-2.07547363 25.12931641 -1.45172852 24.76644531 -0.80908203 24.39257812 C0.82606825 23.43992138 2.45807472 22.48187433 4.08984375 21.5234375 C7.00595994 19.99688003 9.85286907 18.94742243 13 18 C13 17.34 13 16.68 13 16 C13.99 16 14.98 16 16 16 C16 15.34 16 14.68 16 14 C13.525 13.505 13.525 13.505 11 13 C11 12.34 11 11.68 11 11 C10.154375 10.773125 9.30875 10.54625 8.4375 10.3125 C4.32595149 8.74263602 1.49606516 6.65700952 -2 4 C-1.34 2.68 -0.68 1.36 0 0 Z " fill="#5D836B" transform="translate(274,407)"/>
<path d="M0 0 C0.99 0 1.98 0 3 0 C2.53256496 4.30636965 -0.00661479 6.07932325 -3.0625 8.9375 C-5.91911556 11.82913278 -7.84469139 14.1422028 -8.58984375 18.2578125 C-8.5301957 20.45182349 -8.40816962 22.64506374 -8.22265625 24.83203125 C-7.90220212 29.39147508 -8.72006007 33.62765047 -10 38 C-10.495 38.495 -10.495 38.495 -11 39 C-9.71416016 39.14695312 -9.71416016 39.14695312 -8.40234375 39.296875 C2.07420626 40.66697624 2.07420626 40.66697624 5.75 43.3125 C9.27356746 45.14204464 9.5870517 45.22981057 13.125 44.125 C18.28047869 42.04143866 23.28810365 39.56022978 28.27734375 37.109375 C29.17582031 36.74328125 30.07429688 36.3771875 31 36 C31.99 36.495 31.99 36.495 33 37 C33 37.99 33 38.98 33 40 C29.2179787 41.66381188 25.43165935 43.31732817 21.64135742 44.9621582 C20.35730611 45.52099248 19.07438828 46.0824398 17.79272461 46.64672852 C-5.58788552 56.93346547 -5.58788552 56.93346547 -16 53 C-18.6875 51.1875 -18.6875 51.1875 -20 49 C-19.75 46.25 -19.75 46.25 -19 44 C-20.2065625 43.814375 -20.2065625 43.814375 -21.4375 43.625 C-22.283125 43.41875 -23.12875 43.2125 -24 43 C-25.89408864 39.21182271 -25.45565168 35.12449919 -25 31 C-22.34943565 23.38755473 -17.73782266 18.10503326 -11.9375 12.6875 C-10.5277999 11.33948231 -9.1201864 9.98927858 -7.71484375 8.63671875 C-7.06241699 8.01458496 -6.40999023 7.39245117 -5.73779297 6.75146484 C-3.80925992 4.87906382 -3.80925992 4.87906382 -1.69140625 2.01953125 C-1.13324219 1.35308594 -0.57507813 0.68664062 0 0 Z " fill="#43765B" transform="translate(365,350)"/>
<path d="M0 0 C0.99 0.33 1.98 0.66 3 1 C1.46356148 4.68069887 -0.78150945 6.98775204 -3.625 9.75 C-4.44226563 10.54921875 -5.25953125 11.3484375 -6.1015625 12.171875 C-6.72804688 12.77515625 -7.35453125 13.3784375 -8 14 C-7.34 14.66 -6.68 15.32 -6 16 C-5.01 15.34 -4.02 14.68 -3 14 C-1.68 14 -0.36 14 1 14 C-5.24701698 29.42342611 -32.11519084 45.53966775 -46.953125 51.9453125 C-52.87972085 53.99682645 -58.89882859 54.83035142 -65 53 C-65 52.34 -65 51.68 -65 51 C-65.66 51 -66.32 51 -67 51 C-67.33 49.35 -67.66 47.7 -68 46 C-62.8729791 41.60541066 -59.06717872 39.59643802 -52.18359375 39.7265625 C-48.98383285 40.12724812 -46.14732708 41.21910678 -43.17578125 42.44140625 C-40.3092708 43.17733263 -38.82353203 42.92731611 -36 42 C-33.64356235 40.56564665 -31.46416173 39.12607699 -29.25 37.5 C-28.63745361 37.0551123 -28.02490723 36.61022461 -27.39379883 36.15185547 C-17.36291796 29.22791459 -17.36291796 29.22791459 -12 19 C-15.36591866 20.44253657 -17.51047079 22.33264727 -20 25 C-20.99 24.67 -21.98 24.34 -23 24 C-21.65223338 20.95636263 -20.19090768 18.9924516 -17.734375 16.7578125 C-17.09113281 16.16613281 -16.44789063 15.57445312 -15.78515625 14.96484375 C-15.11355469 14.35769531 -14.44195312 13.75054687 -13.75 13.125 C-12.43133076 11.92032182 -11.11361154 10.71460285 -9.796875 9.5078125 C-8.84264648 8.63431152 -8.84264648 8.63431152 -7.86914062 7.74316406 C-5.17451974 5.23015556 -2.58509384 2.62523505 0 0 Z " fill="#41785A" transform="translate(433,338)"/>
<path d="M0 0 C4.66252523 0.85506734 6.98298101 3.73159877 10.125 7.0625 C15.4356119 12.54824509 20.8739852 17.4227745 27 22 C26.67 22.66 26.34 23.32 26 24 C25.21625 23.95875 24.4325 23.9175 23.625 23.875 C20.83883881 23.71271266 20.83883881 23.71271266 19 26 C24.18635123 31.37632746 29.89035786 35.72488847 36 40 C36.63164062 40.44601562 37.26328125 40.89203125 37.9140625 41.3515625 C41.86193628 43.58804272 44.80628994 42.72871904 48.9375 41.625 C49.97003906 41.3259375 51.00257813 41.026875 52.06640625 40.71875 C57.37641435 39.41776266 61.28009724 40.33114893 66.375 42.3125 C69.06545821 44.04208028 69.97305602 45.02186247 71 48 C68.34868289 51.23129273 66.51270959 52.83520049 62.5 54.125 C50.88972354 54.81815083 38.60653024 45.6603304 29 40 C29 39.34 29 38.68 29 38 C28.40993164 37.72760498 27.81986328 37.45520996 27.21191406 37.17456055 C25.05219593 36.02771685 23.43982083 34.81728304 21.609375 33.20703125 C20.98554932 32.66216064 20.36172363 32.11729004 19.71899414 31.5559082 C19.06922607 30.9805835 18.41945801 30.40525879 17.75 29.8125 C16.41015695 28.63541587 15.07031321 27.45833253 13.73046875 26.28125 C13.08899902 25.71535156 12.4475293 25.14945312 11.78662109 24.56640625 C8.96647302 22.0938632 6.09634626 19.67952605 3.22265625 17.26953125 C2 16 2 16 2 14 C6.40114397 14.50298788 8.71195019 16.08772731 12 19 C12.33 18.01 12.66 17.02 13 16 C13.66 16.33 14.32 16.66 15 17 C10.70138913 12.5804907 6.29195668 8.46671244 1.50390625 4.578125 C0 3 0 3 0 0 Z " fill="#457759" transform="translate(156,338)"/>
<path d="M0 0 C0.99 0.33 1.98 0.66 3 1 C-2.27488558 7.30413155 -7.77895548 13.11963717 -14 18.5 C-14.66257812 19.08007812 -15.32515625 19.66015625 -16.0078125 20.2578125 C-17.32566666 21.41028888 -18.65374025 22.55119276 -19.9921875 23.6796875 C-24.75523151 27.96840348 -26.29422673 31.64804061 -27 38 C-27.66 38 -28.32 38 -29 38 C-29.226875 38.5775 -29.45375 39.155 -29.6875 39.75 C-31.94515854 43.62027179 -34.91140983 45.54642076 -39 47.25 C-41.81646501 47.95411625 -44.11480631 48.16971728 -47 48 C-48.19921875 45.390625 -48.19921875 45.390625 -49 42 C-47.76953125 38.859375 -47.76953125 38.859375 -45.8125 35.75 C-45.17957031 34.71359375 -44.54664063 33.6771875 -43.89453125 32.609375 C-41.13956568 28.81490696 -38.4341609 27.70960242 -34.0625 26.5 C-24.40349097 23.81937004 -18.30475477 17.4003376 -11.375 10.375 C-8.88339569 7.85977858 -6.35577442 5.39731246 -3.75 3 C-3.10546875 2.401875 -2.4609375 1.80375 -1.796875 1.1875 C-1.20390625 0.795625 -0.6109375 0.40375 0 0 Z " fill="#4E7C60" transform="translate(443,312)"/>
<path d="M0 0 C0.99 0.33 1.98 0.66 3 1 C-1.36921889 6.70425799 -6.29223419 10.57587233 -12.08984375 14.79296875 C-15.75366971 17.57157501 -18.8701447 20.65007675 -22 24 C-23.0828125 24.84884766 -23.0828125 24.84884766 -24.1875 25.71484375 C-26.75468312 28.95148627 -26.27358273 31.8343754 -26 35.75 C-25.72809386 43.17512924 -26.47660605 47.90524487 -31.4453125 53.6796875 C-33 55 -33 55 -36.0625 55.3125 C-39 55 -39 55 -41 53 C-42.17070206 46.59194661 -40.85635477 41.15835035 -37.76953125 35.52734375 C-35.0220287 31.60320655 -31.69905204 28.39056885 -28.20703125 25.12890625 C-25.85099083 23.00804827 -25.85099083 23.00804827 -24 20 C-23.34 20 -22.68 20 -22 20 C-21.67 19.01 -21.34 18.02 -21 17 C-19.4765625 15.71875 -19.4765625 15.71875 -17.625 14.5 C-15.12879152 12.84294246 -13.08737018 11.14624472 -11 9 C-9.67631986 7.80174923 -8.34244884 6.61468526 -7 5.4375 C-6.319375 4.83808594 -5.63875 4.23867188 -4.9375 3.62109375 C-3 2 -3 2 0 0 Z " fill="#407558" transform="translate(400,326)"/>
<path d="M0 0 C3.5560054 0.57998099 5.20830949 1.84225129 7.71484375 4.38671875 C8.74448242 5.4240918 8.74448242 5.4240918 9.79492188 6.48242188 C10.85549805 7.57393555 10.85549805 7.57393555 11.9375 8.6875 C12.64068359 9.39583984 13.34386719 10.10417969 14.06835938 10.83398438 C25 21.92954838 25 21.92954838 25 25 C25.66 25.33 26.32 25.66 27 26 C28.8981549 31.79436759 29.28774343 37.07638021 28 43 C25.55206948 43.90158155 24.43774273 44.18894754 22 43.13671875 C16.35407821 39.04563089 13.3561148 34.91061242 12 28 C12.0803428 25.66470249 12.20779837 23.3306894 12.375 21 C12.55041015 16.54165881 12.43214311 14.62219144 9.859375 10.91796875 C5.34454692 6.40831744 5.34454692 6.40831744 0 3 C0 2.01 0 1.02 0 0 Z " fill="#457658" transform="translate(224,350)"/>
<path d="M0 0 C6.62545075 0.67953341 12.44787641 3.35175352 18 6.9375 C22.54323228 8.54656143 25.70985349 6.79777568 30 5 C35.16376126 3.27874625 41.01933908 3.04452681 46.2421875 4.71875 C49.3184553 6.30155999 50.81063325 7.44452421 51.9375 10.75 C51.958125 11.4925 51.97875 12.235 52 13 C47.23316456 16.78059363 43.34653365 17.45761959 37.3671875 17.41796875 C31.17244919 16.64901632 25.5594909 14.15151324 19.83154297 11.76074219 C17.40522796 10.75295792 14.95157064 9.81936465 12.5 8.875 C8.20664166 7.14310291 4.10903584 5.13061118 0 3 C0 2.01 0 1.02 0 0 Z " fill="#437458" transform="translate(195,387)"/>
<path d="M0 0 C0.99 0 1.98 0 3 0 C2.53256496 4.30636965 -0.00661479 6.07932325 -3.0625 8.9375 C-5.969787 11.86687275 -7.85590274 14.17835935 -8.58984375 18.36328125 C-8.53084455 20.58729443 -8.40897489 22.81069538 -8.21875 25.02734375 C-7.9376325 28.84752975 -8.6789653 31.44971924 -10 35 C-10.66 35 -11.32 35 -12 35 C-12.4021875 36.175625 -12.4021875 36.175625 -12.8125 37.375 C-14 40 -14 40 -17 42 C-20.1875 42.125 -20.1875 42.125 -23 42 C-25.21687457 37.56625086 -24.30262957 30.788424 -23.0078125 26.12890625 C-20.7377238 21.33356384 -16.70339547 17.7148967 -13 14 C-12.19046875 13.18789063 -11.3809375 12.37578125 -10.546875 11.5390625 C-9.01762907 10.0148803 -7.48279494 8.49627626 -5.94140625 6.984375 C-3.83183813 4.90391929 -3.83183813 4.90391929 -1.625 1.9375 C-1.08875 1.298125 -0.5525 0.65875 0 0 Z " fill="#427859" transform="translate(365,350)"/>
<path d="M0 0 C11.47339827 3.58543696 18.99921802 14.15871755 25 24 C25.97551509 26.92654527 26.16478088 28.94654996 26.1875 32 C26.20167969 32.86625 26.21585938 33.7325 26.23046875 34.625 C26 37 26 37 24 40 C19.15175132 39.58443583 17.11963138 37.62551755 14 34 C12.41628254 31.25938255 11.66135396 28.95218563 11.3125 25.8125 C11.17714844 24.62720703 11.17714844 24.62720703 11.0390625 23.41796875 C10.99831199 20.89551197 11.51930627 19.04177861 12.1875 16.625 C12.68511691 14.37107523 12.68511691 14.37107523 12 12 C9.11628764 8.70061739 6.04658185 5.9514612 2.66015625 3.1875 C1.78230469 2.465625 0.90445313 1.74375 0 1 C0 0.67 0 0.34 0 0 Z " fill="#396F50" transform="translate(206,341)"/>
<path d="M0 0 C6.34458571 4.82188514 12.21048803 10.56451372 13.40625 18.796875 C13.47846045 25.0430791 13.47846045 25.0430791 12 28 C8.8923991 27.9260095 6.72426634 27.63075777 4.3359375 25.55078125 C0.45892557 21.14855835 -1.99157109 17.52867225 -2.01171875 11.484375 C-1.90472656 10.25203125 -1.79773438 9.0196875 -1.6875 7.75 C-1.58824219 6.50734375 -1.48898438 5.2646875 -1.38671875 3.984375 C-1 1 -1 1 0 0 Z " fill="#417557" transform="translate(201,340)"/>
<path d="M0 0 C2.3831064 7.29826336 2.99920755 13.69758161 0 21 C-2.7702868 24.64849627 -5.25121041 27.69586268 -9.875 28.5 C-12 28 -12 28 -13 27 C-14.09070669 19.28714556 -12.30610434 13.40038833 -8 7 C-2.05187835 0 -2.05187835 0 0 0 Z " fill="#3E7456" transform="translate(391,340)"/>
<path d="M0 0 C1.13308594 0.07863281 2.26617187 0.15726562 3.43359375 0.23828125 C6.29453138 0.6490276 8.11311022 1.2130516 10.5625 2.6875 C9.25654788 6.60535635 7.60402061 7.18618051 4.125 9.3125 C3.13628906 9.92351562 2.14757812 10.53453125 1.12890625 11.1640625 C-3.14147014 13.69898913 -6.49033488 14.23718501 -11.4375 13.6875 C-14.9375 12.1875 -14.9375 12.1875 -17.4375 10.6875 C-17.375 8.5 -17.375 8.5 -16.4375 5.6875 C-11.30672878 0.92603879 -6.98212146 -0.53098994 0 0 Z " fill="#407559" transform="translate(400.4375,363.3125)"/>
<path d="M0 0 C4.32046898 1.41680244 7.00461199 3.53763785 10.3125 6.625 C11.19550781 7.44226563 12.07851562 8.25953125 12.98828125 9.1015625 C13.65214844 9.72804688 14.31601563 10.35453125 15 11 C15.99 10.67 16.98 10.34 18 10 C18 9.01 18 8.02 18 7 C18.99 6.67 19.98 6.34 21 6 C21.94101563 6.89203125 22.88203125 7.7840625 23.8515625 8.703125 C25.10916165 9.8856436 26.36698614 11.06792259 27.625 12.25 C28.24246094 12.83652344 28.85992187 13.42304688 29.49609375 14.02734375 C32.3340436 16.68605467 35.10039384 19.17171424 38.375 21.28125 C41.04219104 23.02762509 41.94477485 24.04536959 43 27 C42.01 26.2575 41.02 25.515 40 24.75 C36.18871782 22.01429439 32.23555831 20.0063171 28 18 C27.67 18.66 27.34 19.32 27 20 C26.34 20 25.68 20 25 20 C25 20.99 25 21.98 25 23 C22.03824877 22.38722388 20.61941217 21.74627478 18 20 C18.66 21.65 19.32 23.3 20 25 C18.02 24.01 16.04 23.02 14 22 C14.33 21.01 14.66 20.02 15 19 C14.01 18.67 13.02 18.34 12 18 C12.33 17.34 12.66 16.68 13 16 C13.66 16 14.32 16 15 16 C14.48050781 15.62488281 13.96101562 15.24976563 13.42578125 14.86328125 C7.88849568 10.79987576 2.98415938 6.66170018 -1 1 C-0.67 0.67 -0.34 0.34 0 0 Z " fill="#4B7B62" transform="translate(172,320)"/>
<path d="M0 0 C2.9375 2.6875 2.9375 2.6875 5 5 C3.25 8.875 3.25 8.875 1 10 C-6.50305486 11.02906482 -11.49977842 9.81892544 -17.80859375 5.703125 C-20.06354244 3.95061586 -22.02985876 2.0643849 -24 0 C-15.33486487 -3.36977477 -8.59557481 -4.70323905 0 0 Z " fill="#407355" transform="translate(204,366)"/>
<path d="M0 0 C0.99 0.33 1.98 0.66 3 1 C1.46356148 4.68069887 -0.78150945 6.98775204 -3.625 9.75 C-4.44226563 10.54921875 -5.25953125 11.3484375 -6.1015625 12.171875 C-6.72804688 12.77515625 -7.35453125 13.3784375 -8 14 C-7.34 14.66 -6.68 15.32 -6 16 C-5.01 15.34 -4.02 14.68 -3 14 C-1.68 14 -0.36 14 1 14 C-0.56583596 18.03721561 -3.44173865 20.47070582 -6.625 23.25 C-7.140625 23.70890625 -7.65625 24.1678125 -8.1875 24.640625 C-9.4534602 25.76592296 -10.72607942 26.88372177 -12 28 C-12.33 27.34 -12.66 26.68 -13 26 C-13.66 25.67 -14.32 25.34 -15 25 C-14.01 23.35 -13.02 21.7 -12 20 C-15.24565858 19.65944803 -15.24565858 19.65944803 -17.6875 22.5 C-18.450625 23.325 -19.21375 24.15 -20 25 C-20.99 24.67 -21.98 24.34 -23 24 C-21.65223338 20.95636263 -20.19090768 18.9924516 -17.734375 16.7578125 C-17.09113281 16.16613281 -16.44789063 15.57445312 -15.78515625 14.96484375 C-15.11355469 14.35769531 -14.44195312 13.75054687 -13.75 13.125 C-12.43133076 11.92032182 -11.11361154 10.71460285 -9.796875 9.5078125 C-8.84264648 8.63431152 -8.84264648 8.63431152 -7.86914062 7.74316406 C-5.17451974 5.23015556 -2.58509384 2.62523505 0 0 Z " fill="#62896F" transform="translate(433,338)"/>
<path d="M0 0 C4.66252523 0.85506734 6.98298101 3.73159877 10.125 7.0625 C15.4356119 12.54824509 20.8739852 17.4227745 27 22 C26.67 22.66 26.34 23.32 26 24 C25.278125 23.979375 24.55625 23.95875 23.8125 23.9375 C21.01418652 23.87493699 21.01418652 23.87493699 18.5 24.75 C16 25 16 25 13.1875 23.0625 C12.465625 22.381875 11.74375 21.70125 11 21 C11.33 19.35 11.66 17.7 12 16 C12.99 16.33 13.98 16.66 15 17 C10.70138913 12.5804907 6.29195668 8.46671244 1.50390625 4.578125 C0 3 0 3 0 0 Z " fill="#658B70" transform="translate(156,338)"/>
<path d="M0 0 C4.28806873 0.47645208 6.26647487 1.65902484 9 5 C9 5.66 9 6.32 9 7 C9.57878906 7.27199219 10.15757812 7.54398437 10.75390625 7.82421875 C15.46636616 10.29108907 19.67192004 13.63697057 23.375 17.4375 C27.69128664 21.65101791 32.79487181 25.4777025 38.26171875 28.07421875 C40 29 40 29 40.75 31.125 C40.8325 31.74375 40.915 32.3625 41 33 C36.02790438 31.23570801 31.56561939 28.6060834 27 26 C27 25.34 27 24.68 27 24 C26.40993164 23.72760498 25.81986328 23.45520996 25.21191406 23.17456055 C23.05219593 22.02771685 21.43982083 20.81728304 19.609375 19.20703125 C18.98554932 18.66216064 18.36172363 18.11729004 17.71899414 17.5559082 C17.06922607 16.9805835 16.41945801 16.40525879 15.75 15.8125 C14.41015695 14.63541587 13.07031321 13.45833253 11.73046875 12.28125 C11.08899902 11.71535156 10.4475293 11.14945312 9.78662109 10.56640625 C6.96647302 8.0938632 4.09634626 5.67952605 1.22265625 3.26953125 C0 2 0 2 0 0 Z " fill="#6C8D75" transform="translate(158,352)"/>
<path d="M0 0 C0.99 0.33 1.98 0.66 3 1 C-2.86290422 8.00688554 -9.0796727 14.26198371 -16 20.22265625 C-19.13788102 23.01120286 -22.07410323 25.99181238 -25 29 C-25.33 28.34 -25.66 27.68 -26 27 C-27.0725 27.350625 -28.145 27.70125 -29.25 28.0625 C-32.78720743 28.94680186 -33.74811124 29.02880551 -37 28 C-34.0703125 26.92578125 -34.0703125 26.92578125 -31.140625 25.8515625 C-23.12867766 22.66432798 -17.35974579 16.44229401 -11.375 10.375 C-8.88339569 7.85977858 -6.35577442 5.39731246 -3.75 3 C-3.10546875 2.401875 -2.4609375 1.80375 -1.796875 1.1875 C-1.20390625 0.795625 -0.6109375 0.40375 0 0 Z " fill="#7A907E" transform="translate(443,312)"/>
<path d="M0 0 C4.23669203 0.49193817 6.6734419 3.12012526 9.625 5.9375 C10.14989014 6.42677979 10.67478027 6.91605957 11.21557617 7.42016602 C14.67688699 10.66922911 18.00389953 14.03263091 21.3125 17.4375 C24.97048047 21.15457547 28.30309908 23.75365608 33 26 C32.360625 26.12375 31.72125 26.2475 31.0625 26.375 C30.381875 26.58125 29.70125 26.7875 29 27 C28.67 27.66 28.34 28.32 28 29 C27.55720703 28.55197021 27.11441406 28.10394043 26.65820312 27.64233398 C24.60823317 25.57129904 22.55414567 23.50439303 20.5 21.4375 C19.80390625 20.73302734 19.1078125 20.02855469 18.390625 19.30273438 C14.29230753 15.18544322 10.10338992 11.24501569 5.6953125 7.46044922 C3.68534154 5.72893334 1.76380715 3.98428305 0 2 C0 1.34 0 0.68 0 0 Z " fill="#638973" transform="translate(146,312)"/>
<path d="M0 0 C-1.51052023 3.67670584 -3.6488615 5.71874462 -6.625 8.3125 C-7.51703125 9.09625 -8.4090625 9.88 -9.328125 10.6875 C-10.65070313 11.8321875 -10.65070313 11.8321875 -12 13 C-13.45882476 14.27026918 -14.91720969 15.54104379 -16.375 16.8125 C-17.014375 17.36679687 -17.65375 17.92109375 -18.3125 18.4921875 C-19.72011528 19.74991782 -21.05766755 21.08550091 -22.375 22.4375 C-24 24 -24 24 -26 24 C-26.33 23.01 -26.66 22.02 -27 21 C-25.76702438 19.47500384 -24.52693916 17.95357369 -23.21484375 16.49609375 C-21.78642043 14.73697436 -21.25918947 13.24630874 -21 11 C-20.31164062 11.1134375 -19.62328125 11.226875 -18.9140625 11.34375 C-14.60754345 10.83574239 -12.47462924 8.38024909 -9.375 5.5 C-3.375 0 -3.375 0 0 0 Z " fill="#90AA90" transform="translate(421,320)"/>
<path d="M0 0 C0.99 0.33 1.98 0.66 3 1 C-1.36989715 6.70514351 -6.292514 10.57845695 -12.09375 14.79296875 C-15.19668936 17.1493676 -17.85491139 19.68249875 -20.54296875 22.48828125 C-22.55546302 24.5763115 -24.58579362 26.39052908 -27 28 C-27.99 27.67 -28.98 27.34 -30 27 C-29.04882866 25.8274869 -28.08882991 24.66212985 -27.125 23.5 C-26.59132813 22.8503125 -26.05765625 22.200625 -25.5078125 21.53125 C-25.01023437 21.0259375 -24.51265625 20.520625 -24 20 C-23.34 20 -22.68 20 -22 20 C-21.67 19.01 -21.34 18.02 -21 17 C-19.4765625 15.71875 -19.4765625 15.71875 -17.625 14.5 C-15.12879152 12.84294246 -13.08737018 11.14624472 -11 9 C-9.67631986 7.80174923 -8.34244884 6.61468526 -7 5.4375 C-6.319375 4.83808594 -5.63875 4.23867188 -4.9375 3.62109375 C-3 2 -3 2 0 0 Z " fill="#699075" transform="translate(400,326)"/>
<path d="M0 0 C4.73474097 1.6996506 8.96167111 4.13659027 13.3125 6.625 C14.05306641 7.04523438 14.79363281 7.46546875 15.55664062 7.8984375 C17.37269011 8.92948495 19.18656533 9.96436046 21 11 C18.66785852 12.20628008 16.50357861 13.1654738 14 14 C13.01 13.67 12.02 13.34 11 13 C11 12.34 11 11.68 11 11 C10.154375 10.773125 9.30875 10.54625 8.4375 10.3125 C4.32595149 8.74263602 1.49606516 6.65700952 -2 4 C-1.34 2.68 -0.68 1.36 0 0 Z " fill="#618670" transform="translate(274,407)"/>
<path d="M0 0 C1.19625 0.309375 2.3925 0.61875 3.625 0.9375 C11.26149166 2.86053481 11.26149166 2.86053481 19 2 C19.99 3.485 19.99 3.485 21 5 C21.99 5 22.98 5 24 5 C23 8 23 8 20.4921875 9.3671875 C15.69595063 10.23630425 12.56659878 8.89411138 8.125 7.125 C7.34125 6.82980469 6.5575 6.53460938 5.75 6.23046875 C3.82701192 5.50348545 1.91257425 4.75395466 0 4 C0 2.68 0 1.36 0 0 Z " fill="#6A8F75" transform="translate(217,402)"/>
<path d="M0 0 C4.36802875 0.27796547 6.32679269 1.95212553 9.203125 5.15820312 C9.67234375 5.70412109 10.1415625 6.25003906 10.625 6.8125 C11.10195312 7.34681641 11.57890625 7.88113281 12.0703125 8.43164062 C14.51584497 11.19305437 16.84164199 14.0087186 19 17 C17.68 17 16.36 17 15 17 C13.71553081 19.56893838 13.67022856 21.76576337 13.4375 24.625 C13.35371094 25.62789063 13.26992188 26.63078125 13.18359375 27.6640625 C13.12300781 28.43492187 13.06242187 29.20578125 13 30 C12.67 30 12.34 30 12 30 C12.11601562 29.02160156 12.23203125 28.04320312 12.3515625 27.03515625 C13.08213116 19.16066195 13.08213116 19.16066195 9.84375 12.2109375 C7.18239184 9.91781855 7.18239184 9.91781855 4.3828125 8.02734375 C1.50922631 5.58244009 0.89134483 3.61148334 0 0 Z " fill="#7B9C83" transform="translate(243,362)"/>
<path d="M0 0 C6.7462532 0.6919234 12.39136591 3.62185369 18.3125 6.75 C21.11048467 8.28115383 21.11048467 8.28115383 25 8 C25.33 9.65 25.66 11.3 26 13 C16.68524157 11.74236941 8.27013154 7.29410676 0 3 C0 2.01 0 1.02 0 0 Z " fill="#699077" transform="translate(195,387)"/>
<path d="M0 0 C-1.56477627 4.10873769 -4.5213776 6.51212041 -7.8125 9.25 C-8.38202393 9.72800049 -8.95154785 10.20600098 -9.53833008 10.69848633 C-24.53561558 23 -24.53561558 23 -30 23 C-30 21.68 -30 20.36 -30 19 C-28.35 19.33 -26.7 19.66 -25 20 C-25 19.01 -25 18.02 -25 17 C-22.98046875 15.52734375 -22.98046875 15.52734375 -20.1875 13.9375 C-14.49970821 10.50863716 -10.03657811 6.54875569 -5.3125 1.94140625 C-3 0 -3 0 0 0 Z " fill="#618A71" transform="translate(420,364)"/>
<path d="M0 0 C0.66 0.33 1.32 0.66 2 1 C2 1.99 2 2.98 2 4 C-1.78611885 5.70015316 -5.57970339 7.38294634 -9.375 9.0625 C-10.99535156 9.79049805 -10.99535156 9.79049805 -12.6484375 10.53320312 C-14.1953125 11.21479492 -14.1953125 11.21479492 -15.7734375 11.91015625 C-16.72653809 12.33433838 -17.67963867 12.75852051 -18.66162109 13.19555664 C-19.81911865 13.5937561 -19.81911865 13.5937561 -21 14 C-21.66 13.67 -22.32 13.34 -23 13 C-22 10 -22 10 -18.61328125 8.28125 C-17.18424745 7.67660755 -15.75037668 7.08330161 -14.3125 6.5 C-12.89130958 5.90772956 -11.47072652 5.31399945 -10.05078125 4.71875 C-9.3645166 4.43515625 -8.67825195 4.1515625 -7.97119141 3.859375 C-6.14386864 3.06272202 -4.37063584 2.14500569 -2.60546875 1.21875 C-1.74566406 0.8165625 -0.88585937 0.414375 0 0 Z " fill="#6C907A" transform="translate(396,386)"/>
<path d="M0 0 C1.32 0 2.64 0 4 0 C2.43416404 4.03721561 -0.44173865 6.47070582 -3.625 9.25 C-4.140625 9.70890625 -4.65625 10.1678125 -5.1875 10.640625 C-6.4534602 11.76592296 -7.72607942 12.88372177 -9 14 C-9.33 13.34 -9.66 12.68 -10 12 C-10.66 11.67 -11.32 11.34 -12 11 C-11.525625 10.278125 -11.05125 9.55625 -10.5625 8.8125 C-9.05847097 6.10524774 -8.43400818 4.03805725 -8 1 C-6.33388095 0.957279 -4.66617115 0.95936168 -3 1 C-2.67 1.33 -2.34 1.66 -2 2 C-1.34 1.34 -0.68 0.68 0 0 Z " fill="#728F7A" transform="translate(430,352)"/>
<path d="M0 0 C1.32 0.33 2.64 0.66 4 1 C1.40964343 5.77170947 -1.85541794 9.30732618 -6.11328125 12.66796875 C-8.68911964 15.85176899 -8.66820905 18.81659869 -8.75 22.75 C-8.77964844 23.44738281 -8.80929687 24.14476562 -8.83984375 24.86328125 C-8.91018458 26.57490813 -8.95739946 28.28745815 -9 30 C-9.33 30 -9.66 30 -10 30 C-10.07347656 28.39318359 -10.07347656 28.39318359 -10.1484375 26.75390625 C-10.22345294 25.35674361 -10.2990013 23.9596095 -10.375 22.5625 C-10.4059375 21.85544922 -10.436875 21.14839844 -10.46875 20.41992188 C-10.57280629 18.60760812 -10.77919892 16.80182012 -11 15 C-11.66 14.67 -12.32 14.34 -13 14 C-12.22914063 13.24074219 -11.45828125 12.48148437 -10.6640625 11.69921875 C-9.65090904 10.69544634 -8.63789552 9.69153268 -7.625 8.6875 C-7.11710937 8.18798828 -6.60921875 7.68847656 -6.0859375 7.17382812 C-3.77145867 4.87457613 -1.81652517 2.72478775 0 0 Z " fill="#6D9479" transform="translate(346,362)"/>
<path d="M0 0 C0.99 0 1.98 0 3 0 C2.48321616 4.26599996 0.00800012 6.59444789 -2.8125 9.6875 C-3.68519531 10.66074219 -4.55789063 11.63398438 -5.45703125 12.63671875 C-7.9186329 14.92438234 -8.83034133 15.48194826 -12 16 C-14.22977996 17.97901574 -14.22977996 17.97901574 -16 20 C-16.66 19.67 -17.32 19.34 -18 19 C-17.5968457 18.60208252 -17.19369141 18.20416504 -16.77832031 17.79418945 C-14.93285523 15.96965943 -13.09140987 14.1411223 -11.25 12.3125 C-10.61578125 11.68666016 -9.9815625 11.06082031 -9.328125 10.41601562 C-6.60679905 7.70886325 -4.07376279 5.09627316 -1.734375 2.04296875 C-1.16203125 1.36878906 -0.5896875 0.69460938 0 0 Z " fill="#688F73" transform="translate(365,350)"/>
<path d="M0 0 C4.8818966 3.4617085 9.18774401 7.0873536 13.33203125 11.40234375 C15.15656069 13.24551497 15.15656069 13.24551497 18.3125 15.1875 C20.99241881 16.99488711 21.93166897 18.00867312 23 21 C21.5459375 19.9171875 21.5459375 19.9171875 20.0625 18.8125 C17.26401478 16.79736359 14.42387373 15.10870222 11.375 13.5 C7.60578543 11.46500809 4.91818584 9.16831605 2 6 C1.236875 5.443125 0.47375 4.88625 -0.3125 4.3125 C-0.869375 3.879375 -1.42625 3.44625 -2 3 C-2 2.34 -2 1.68 -2 1 C-1.34 0.67 -0.68 0.34 0 0 Z " fill="#73957C" transform="translate(192,326)"/>
<path d="M0 0 C0.66 0.33 1.32 0.66 2 1 C-7.24 10.24 -16.48 19.48 -26 29 C-26.66 28.67 -27.32 28.34 -28 28 C-19.17734911 18.09122731 -9.78216348 8.95826469 0 0 Z " fill="#A98472" transform="translate(108,81)"/>
<path d="M0 0 C3.54822446 0.57881268 5.18422803 1.82692359 7.671875 4.37890625 C8.33574219 5.05244141 8.99960938 5.72597656 9.68359375 6.41992188 C10.36550781 7.12697266 11.04742187 7.83402344 11.75 8.5625 C12.44738281 9.27341797 13.14476562 9.98433594 13.86328125 10.71679688 C15.5824658 12.47130714 17.29425872 14.23243352 19 16 C18.01 16.33 17.02 16.66 16 17 C15.34 17.66 14.68 18.32 14 19 C13.690625 18.195625 13.38125 17.39125 13.0625 16.5625 C10.47878394 11.31981401 5.23482864 5.61741432 0 3 C0 2.01 0 1.02 0 0 Z " fill="#688F75" transform="translate(224,350)"/>
<path d="M0 0 C4.75481646 0.57634139 7.97048212 2.55068521 12 5 C11.34 6.32 10.68 7.64 10 9 C5.6109185 8.48964169 2.66291938 7.47785723 -1 5 C-0.67 3.35 -0.34 1.7 0 0 Z " fill="#588169" transform="translate(318,433)"/>
<path d="M0 0 C0.43828125 0.35191406 0.8765625 0.70382812 1.328125 1.06640625 C6.46222779 5.0630757 11.81827071 8.2285148 17.55859375 11.2890625 C20 13 20 13 20.84765625 15.2109375 C20.92306641 16.09652344 20.92306641 16.09652344 21 17 C16.02790438 15.23570801 11.56561939 12.6060834 7 10 C7 9.34 7 8.68 7 8 C6.4225 7.773125 5.845 7.54625 5.25 7.3125 C2.4336339 5.66961977 0.91922886 3.60466773 -1 1 C-0.67 0.67 -0.34 0.34 0 0 Z " fill="#5E876C" transform="translate(178,368)"/>
<path d="M0 0 C0.33 0.99 0.66 1.98 1 3 C-0.41468311 3.96125903 -1.8318364 4.91888325 -3.25 5.875 C-4.03890625 6.40867187 -4.8278125 6.94234375 -5.640625 7.4921875 C-7.71555692 8.81822015 -9.77614972 9.94928175 -12 11 C-11.66666667 9.66666667 -11.33333333 8.33333333 -11 7 C-10.95875 6.34 -10.9175 5.68 -10.875 5 C-9.01882746 0.75731991 -4.34155863 -1.44718621 0 0 Z " fill="#6A8D78" transform="translate(319,408)"/>
<path d="M0 0 C1.53166168 4.08443115 0.63081652 7.79455657 0 12 C3.30567489 12.85387105 3.30567489 12.85387105 7 13 C9.37580018 11.29118236 9.37580018 11.29118236 11 9 C11.66 8.34 12.32 7.68 13 7 C13.33 7.99 13.66 8.98 14 10 C13.67 10.33 13.34 10.66 13 11 C16.3 11.33 19.6 11.66 23 12 C23 12.33 23 12.66 23 13 C21.78763672 13.05607422 21.78763672 13.05607422 20.55078125 13.11328125 C19.48214844 13.17902344 18.41351563 13.24476563 17.3125 13.3125 C16.25675781 13.37050781 15.20101563 13.42851562 14.11328125 13.48828125 C10.75498538 14.04027216 8.86619813 15.24439302 6 17 C2.75 16.3125 2.75 16.3125 0 15 C-1.23689062 12.52621876 -1.13310087 10.82084683 -1.125 8.0625 C-1.12757813 7.18722656 -1.13015625 6.31195313 -1.1328125 5.41015625 C-1 3 -1 3 0 0 Z " fill="#B0BFA5" transform="translate(341,378)"/>
<path d="M0 0 C-1.54252027 3.80836925 -3.89121156 5.98117914 -6.9375 8.6875 C-7.81277344 9.47511719 -8.68804687 10.26273437 -9.58984375 11.07421875 C-12 13 -12 13 -15 14 C-15.66 13.34 -16.32 12.68 -17 12 C-15.41856529 10.56041153 -13.83477221 9.12341355 -12.25 7.6875 C-11.36828125 6.88699219 -10.4865625 6.08648437 -9.578125 5.26171875 C-3.58031088 0 -3.58031088 0 0 0 Z " fill="#859F8A" transform="translate(421,320)"/>
<path d="M0 0 C1.34709162 0.87500817 2.67738986 1.77590933 4 2.6875 C5.11375 3.43580078 5.11375 3.43580078 6.25 4.19921875 C8 6 8 6 8.25 8.70703125 C8.1675 9.46371094 8.085 10.22039062 8 11 C2.33289301 9.68206814 0.33562767 7.51290803 -3 3 C-2.01 2.01 -1.02 1.02 0 0 Z " fill="#E5E4C9" transform="translate(191,329)"/>
<path d="M0 0 C0 1.32 0 2.64 0 4 C-1.76858691 4.67260351 -3.53996016 5.33788395 -5.3125 6 C-6.29863281 6.37125 -7.28476562 6.7425 -8.30078125 7.125 C-11 8 -11 8 -14 8 C-14 7.34 -14 6.68 -14 6 C-14.66 5.67 -15.32 5.34 -16 5 C-13.70967689 4.16280617 -11.41789043 3.3301071 -9.125 2.5 C-8.47402344 2.26152344 -7.82304687 2.02304687 -7.15234375 1.77734375 C-2.2265625 0 -2.2265625 0 0 0 Z " fill="#77967F" transform="translate(375,402)"/>
<path d="M0 0 C1.32 0.33 2.64 0.66 4 1 C4 1.66 4 2.32 4 3 C4.66 3.66 5.32 4.32 6 5 C2.1637565 7.43273978 0.67060255 8.14061021 -3.875 7.1875 C-4.90625 6.795625 -5.9375 6.40375 -7 6 C-5 3 -5 3 -2.375 2.3125 C-1.59125 2.209375 -0.8075 2.10625 0 2 C0 1.34 0 0.68 0 0 Z " fill="#6B8F77" transform="translate(287,423)"/>
<path d="M0 0 C4.06498881 1.37184347 6.67396561 3.22068459 9.8125 6.125 C10.99779297 7.21167969 10.99779297 7.21167969 12.20703125 8.3203125 C12.79871094 8.87460937 13.39039063 9.42890625 14 10 C12.02 10.99 12.02 10.99 10 12 C8.32448647 10.57282151 6.65980691 9.13291518 5 7.6875 C3.6078125 6.48673828 3.6078125 6.48673828 2.1875 5.26171875 C0 3 0 3 0 0 Z " fill="#789882" transform="translate(172,320)"/>
<path d="M0 0 C0.99 0.33 1.98 0.66 3 1 C1.59155282 4.21524305 -0.10344786 6.32183868 -2.625 8.75 C-3.57246094 9.67039062 -3.57246094 9.67039062 -4.5390625 10.609375 C-5.02117187 11.06828125 -5.50328125 11.5271875 -6 12 C-6.33 11.34 -6.66 10.68 -7 10 C-7.66 9.67 -8.32 9.34 -9 9 C-6.03 6.03 -3.06 3.06 0 0 Z " fill="#8FA490" transform="translate(433,338)"/>
<path d="M0 0 C3.90829085 0.5647301 5.89920223 2.42131971 8.75 5.0625 C9.54921875 5.79597656 10.3484375 6.52945312 11.171875 7.28515625 C11.77515625 7.85105469 12.3784375 8.41695313 13 9 C12.67 9.99 12.34 10.98 12 12 C8.60140297 10.53033642 6.35036291 8.61962486 3.75 6 C3.04359375 5.29875 2.3371875 4.5975 1.609375 3.875 C0 2 0 2 0 0 Z " fill="#849C8B" transform="translate(146,312)"/>
<path d="M0 0 C7.49879867 2.34337459 13.15657734 7.27401035 17 14 C16.01 14.33 15.02 14.66 14 15 C13.34 14.154375 12.68 13.30875 12 12.4375 C9.21215292 9.06484592 6.02457631 6.31374414 2.671875 3.515625 C1 2 1 2 0 0 Z " fill="#658D73" transform="translate(206,341)"/>
<path d="M0 0 C3.51005335 1.6380249 6.45543849 3.03134491 9 6 C8.67 6.99 8.34 7.98 8 9 C4.17902761 8.46930939 1.93828597 7.50298434 -1 5 C-0.67 3.35 -0.34 1.7 0 0 Z " fill="#E2E1C7" transform="translate(168,354)"/>
<path d="M0 0 C4.47421905 0.51133932 6.54491451 2.23593161 10 5 C12.68507329 5.78946609 12.68507329 5.78946609 15 6 C14.01 6.66 13.02 7.32 12 8 C9.51064409 7.21069203 7.330221 6.1651105 5 5 C2.9625237 4.77141886 0.91959697 4.58975722 -1.125 4.4375 C-2.76855469 4.31181641 -2.76855469 4.31181641 -4.4453125 4.18359375 C-5.28835937 4.12300781 -6.13140625 4.06242187 -7 4 C-7 3.67 -7 3.34 -7 3 C-3.535 2.505 -3.535 2.505 0 2 C0 1.34 0 0.68 0 0 Z " fill="#D3D7BD" transform="translate(256,399)"/>
<path d="M0 0 C2.25 0.125 2.25 0.125 5 1 C7.3125 4.0625 7.3125 4.0625 9 7 C8.01 8.485 8.01 8.485 7 10 C3.60582235 6.87378374 1.3937282 4.43458973 0 0 Z " fill="#90AB94" transform="translate(243,362)"/>
<path d="M0 0 C2.91517292 1.07401108 4.77810176 1.77810176 7 4 C6.34 5.32 5.68 6.64 5 8 C0.32307692 6.52307692 0.32307692 6.52307692 -1.3125 3.875 C-1.539375 3.25625 -1.76625 2.6375 -2 2 C-1.34 1.34 -0.68 0.68 0 0 Z " fill="#72917A" transform="translate(274,407)"/>
<path d="M0 0 C7.625 1.75 7.625 1.75 11 4 C10.01 4 9.02 4 8 4 C8 4.66 8 5.32 8 6 C5.03 5.01 2.06 4.02 -1 3 C-0.67 2.01 -0.34 1.02 0 0 Z " fill="#839E88" transform="translate(217,402)"/>
<path d="M0 0 C2.37948772 0.17625835 3.70225849 0.69719773 5.37890625 2.40234375 C6.62115486 3.90649092 7.81376056 5.45129851 9 7 C8.34 7 7.68 7 7 7 C6.67 7.66 6.34 8.32 6 9 C4.99105628 8.07213211 3.99309093 7.13231567 3 6.1875 C2.1646875 5.40439453 2.1646875 5.40439453 1.3125 4.60546875 C0 3 0 3 0 0 Z " fill="#8DA590" transform="translate(156,338)"/>
<path d="M0 0 C0.66 0.33 1.32 0.66 2 1 C2 1.99 2 2.98 2 4 C0 5.6875 0 5.6875 -2 7 C-2 6.34 -2 5.68 -2 5 C-3.0725 5.350625 -4.145 5.70125 -5.25 6.0625 C-8.78720743 6.94680186 -9.74811124 7.02880551 -13 6 C-11.7625 5.54625 -10.525 5.0925 -9.25 4.625 C-4.25849598 2.94086245 -4.25849598 2.94086245 0 0 Z " fill="#9FB29A" transform="translate(419,334)"/>
<path d="M0 0 C3.62613199 0.56959153 5.25517741 1.92374534 7.75 4.5625 C8.36359375 5.20316406 8.9771875 5.84382813 9.609375 6.50390625 C10.06828125 6.99761719 10.5271875 7.49132812 11 8 C10.01 8.66 9.02 9.32 8 10 C6.84806377 8.90220176 5.70365063 7.79650554 4.5625 6.6875 C3.92441406 6.07261719 3.28632813 5.45773437 2.62890625 4.82421875 C1 3 1 3 0 0 Z " fill="#658976" transform="translate(157,322)"/>
<path d="M0 0 C-1.55500981 3.81684226 -4.03595495 6.19195732 -7 9 C-7.99 8.67 -8.98 8.34 -10 8 C-8.90653119 6.65787938 -7.7998425 5.32652025 -6.6875 4 C-5.76517578 2.88625 -5.76517578 2.88625 -4.82421875 1.75 C-3 0 -3 0 0 0 Z " fill="#6D8F78" transform="translate(430,327)"/>
<path d="M0 0 C0.66 0.33 1.32 0.66 2 1 C1.65120368 4.25543229 0.97866739 5.01873107 -1.5625 7.25 C-2.7690625 8.11625 -2.7690625 8.11625 -4 9 C-4.99 8.34 -5.98 7.68 -7 7 C-4.69 4.69 -2.38 2.38 0 0 Z " fill="#8CA28D" transform="translate(435,319)"/>
<path d="M0 0 C1.65 1.65 3.3 3.3 5 5 C3.68 5.33 2.36 5.66 1 6 C0.34 8.97 -0.32 11.94 -1 15 C-1.33 15 -1.66 15 -2 15 C-1.85973717 12.68715544 -1.71264442 10.37472409 -1.5625 8.0625 C-1.48128906 6.77472656 -1.40007812 5.48695313 -1.31640625 4.16015625 C-1 1 -1 1 0 0 Z " fill="#82A287" transform="translate(201,340)"/>
<path d="M0 0 C4.85077588 1.11940982 7.777893 2.1334716 11 6 C10.01 6.66 9.02 7.32 8 8 C6.66372225 6.85760183 5.33104612 5.71098945 4 4.5625 C3.2575 3.92441406 2.515 3.28632813 1.75 2.62890625 C1.1725 2.09136719 0.595 1.55382812 0 1 C0 0.67 0 0.34 0 0 Z " fill="#78987E" transform="translate(168,362)"/>
<path d="M0 0 C3.62840973 0.61583101 5.86120883 2.13760292 8.75 4.375 C9.54921875 4.98085938 10.3484375 5.58671875 11.171875 6.2109375 C11.77515625 6.80132812 12.3784375 7.39171875 13 8 C13 8.99 13 9.98 13 11 C12.154375 10.2575 11.30875 9.515 10.4375 8.75 C7.17280734 6.01513813 3.74256322 4.02098414 0 2 C0 1.34 0 0.68 0 0 Z " fill="#92AC94" transform="translate(201,336)"/>
<path d="M0 0 C-0.34879632 3.25543229 -1.02133261 4.01873107 -3.5625 6.25 C-4.366875 6.8275 -5.17125 7.405 -6 8 C-6.99 7.34 -7.98 6.68 -9 6 C-7.8803014 4.99406757 -6.7540588 3.9954151 -5.625 3 C-4.68527344 2.1646875 -4.68527344 2.1646875 -3.7265625 1.3125 C-2 0 -2 0 0 0 Z " fill="#76977F" transform="translate(413,326)"/>
<path d="M0 0 C1.32176485 0.90325616 2.63215066 1.82317903 3.9375 2.75 C4.66839844 3.26046875 5.39929688 3.7709375 6.15234375 4.296875 C8.20805399 6.19177915 8.62669176 7.27425729 9 10 C8.34 10 7.68 10 7 10 C7 9.34 7 8.68 7 8 C6.4225 7.773125 5.845 7.54625 5.25 7.3125 C2.4336339 5.66961977 0.91922886 3.60466773 -1 1 C-0.67 0.67 -0.34 0.34 0 0 Z " fill="#698F74" transform="translate(178,368)"/>
<path d="M0 0 C0.99 0.33 1.98 0.66 3 1 C3.99 1 4.98 1 6 1 C6 1.99 6 2.98 6 4 C6.62599617 5.68236471 7.28752268 7.3523962 8 9 C6.02 8.01 4.04 7.02 2 6 C2.33 5.01 2.66 4.02 3 3 C2.01 2.67 1.02 2.34 0 2 C0 1.34 0 0.68 0 0 Z " fill="#E0E0C6" transform="translate(184,336)"/>
<path d="M0 0 C1.65 0 3.3 0 5 0 C2.375 5.75 2.375 5.75 -1 8 C-1 5.16032769 -0.59732819 2.76264289 0 0 Z " fill="#ECEACE" transform="translate(422,353)"/>
<path d="M0 0 C2.37948772 0.17625835 3.70225849 0.69719773 5.37890625 2.40234375 C6.62115486 3.90649092 7.81376056 5.45129851 9 7 C5.2241456 6.47557578 2.77627845 5.67345333 0 3 C0 2.01 0 1.02 0 0 Z " fill="#7D9C83" transform="translate(224,350)"/>
<path d="M0 0 C0.763125 0.20625 1.52625 0.4125 2.3125 0.625 C2.6425 1.945 2.9725 3.265 3.3125 4.625 C-0.42237777 4.1270163 -2.49987635 3.75008244 -5.6875 1.625 C-2.6875 -0.375 -2.6875 -0.375 0 0 Z " fill="#E3E1C6" transform="translate(234.6875,404.375)"/>
<path d="M0 0 C0.66 0.33 1.32 0.66 2 1 C1.2575 1.6496875 1.2575 1.6496875 0.5 2.3125 C-1.33218192 3.99740483 -1.33218192 3.99740483 -1 7 C-2.98 7.99 -2.98 7.99 -5 9 C-5 5 -5 5 -2.5 2.25 C-1.675 1.5075 -0.85 0.765 0 0 Z " fill="#809F87" transform="translate(416,354)"/>
<path d="M0 0 C0.598125 0.226875 1.19625 0.45375 1.8125 0.6875 C-0.1675 3.6575 -0.1675 3.6575 -2.1875 6.6875 C-3.1775 6.3575 -4.1675 6.0275 -5.1875 5.6875 C-5.1875 2.6875 -5.1875 2.6875 -3.9375 0.9375 C-2.1875 -0.3125 -2.1875 -0.3125 0 0 Z " fill="#57816B" transform="translate(308.1875,413.3125)"/>
<path d="M0 0 C1.2065625 0.0309375 1.2065625 0.0309375 2.4375 0.0625 C2.4375 1.0525 2.4375 2.0425 2.4375 3.0625 C-0.2025 3.7225 -2.8425 4.3825 -5.5625 5.0625 C-3.15007962 0.07683121 -3.15007962 0.07683121 0 0 Z " fill="#5E866E" transform="translate(358.5625,407.9375)"/>
<path d="M0 0 C5.75 0.75 5.75 0.75 8 3 C7.34 3 6.68 3 6 3 C6 3.66 6 4.32 6 5 C4.02 4.34 2.04 3.68 0 3 C0 2.01 0 1.02 0 0 Z " fill="#7A9980" transform="translate(195,387)"/>
<path d="M0 0 C3.65316671 1.24976756 4.78065836 1.67098753 7 5 C5.68 5.33 4.36 5.66 3 6 C1.68 4.35 0.36 2.7 -1 1 C-0.67 0.67 -0.34 0.34 0 0 Z " fill="#89A38F" transform="translate(172,320)"/>
<path d="M0 0 C0.66 0.33 1.32 0.66 2 1 C-1.67832102 5.0655127 -5.56866979 7.22409568 -11 8 C-8.83385197 5.69125289 -6.60793392 3.94709819 -3.9375 2.25 C-2.89916016 1.57710938 -2.89916016 1.57710938 -1.83984375 0.890625 C-1.23269531 0.59671875 -0.62554687 0.3028125 0 0 Z " fill="#AD8774" transform="translate(172,90)"/>
<path d="M0 0 C0.33 1.65 0.66 3.3 1 5 C-1.97 4.505 -1.97 4.505 -5 4 C-5.33 3.01 -5.66 2.02 -6 1 C-3.92446352 0.4465236 -2.15634036 0 0 0 Z " fill="#658C72" transform="translate(220,395)"/>
<path d="M0 0 C0.66 0.33 1.32 0.66 2 1 C2 1.99 2 2.98 2 4 C-0.3125 4.625 -0.3125 4.625 -3 5 C-3.99 4.34 -4.98 3.68 -6 3 C-4.03533587 1.93224776 -2.03144641 0.93446535 0 0 Z " fill="#859F88" transform="translate(396,386)"/>
<path d="M0 0 C5.75 1.625 5.75 1.625 8 5 C7.01 5 6.02 5 5 5 C4.34 5.66 3.68 6.32 3 7 C2.01 4.69 1.02 2.38 0 0 Z " fill="#5E876B" transform="translate(235,362)"/>
<path d="M0 0 C3.91841827 1.30613942 6.32640809 2.83129848 9 6 C9 6.66 9 7.32 9 8 C4.7257442 6.4169423 2.73468206 3.49431596 0 0 Z " fill="#4B7C62" transform="translate(206,341)"/>
<path d="M0 0 C-1.6396875 0.6496875 -1.6396875 0.6496875 -3.3125 1.3125 C-6.13790298 2.50873916 -7.92568798 3.70733935 -10 6 C-10.66 6 -11.32 6 -12 6 C-10.9200311 2.86809018 -9.99049526 1.99400788 -7.125 0.1875 C-4.02316031 -0.99119908 -2.9798555 -1.26070809 0 0 Z " fill="#8AA38C" transform="translate(171,257)"/>
<path d="M0 0 C1.98 0.99 3.96 1.98 6 3 C5.67 3.99 5.34 4.98 5 6 C2.69 5.34 0.38 4.68 -2 4 C-1.34 3.67 -0.68 3.34 0 3 C0 2.01 0 1.02 0 0 Z " fill="#87A48C" transform="translate(210,392)"/>
<path d="M0 0 C-1.75 3.875 -1.75 3.875 -4 5 C-4.99 4.34 -5.98 3.68 -7 3 C-4.49955934 -0.00052879 -4.2621484 0 0 0 Z " fill="#8FA390" transform="translate(434,352)"/>
<path d="M0 0 C2.31 0.33 4.62 0.66 7 1 C6.67 1.99 6.34 2.98 6 4 C4.35 3.67 2.7 3.34 1 3 C0.67 2.01 0.34 1.02 0 0 Z " fill="#628670" transform="translate(225,406)"/>
<path d="M0 0 C0.66 1.32 1.32 2.64 2 4 C-0.475 5.485 -0.475 5.485 -3 7 C-3.33 6.01 -3.66 5.02 -4 4 C-2.68 3.34 -1.36 2.68 0 2 C0 1.34 0 0.68 0 0 Z " fill="#7C9C83" transform="translate(267,408)"/>
<path d="M0 0 C1.43088528 2.86177057 0.59991697 4.93375773 0 8 C-0.66 8 -1.32 8 -2 8 C-2.6875 5.6875 -2.6875 5.6875 -3 3 C-1.5625 1.1875 -1.5625 1.1875 0 0 Z " fill="#598A6B" transform="translate(368,381)"/>
<path d="M0 0 C0.99 0 1.98 0 3 0 C2.25 1.9375 2.25 1.9375 1 4 C-1.125 4.75 -1.125 4.75 -3 5 C-1.125 1.125 -1.125 1.125 0 0 Z " fill="#5E846E" transform="translate(417,364)"/>
<path d="M0 0 C1.98 0.495 1.98 0.495 4 1 C2.515 3.475 2.515 3.475 1 6 C0.34 5.67 -0.32 5.34 -1 5 C-0.67 3.35 -0.34 1.7 0 0 Z " fill="#9CB29B" transform="translate(346,362)"/>
<path d="M0 0 C0.66 0.33 1.32 0.66 2 1 C2 1.99 2 2.98 2 4 C0.03533587 5.06775224 -1.96855359 6.06553465 -4 7 C-4.66 6.67 -5.32 6.34 -6 6 C-5.195625 5.38125 -4.39125 4.7625 -3.5625 4.125 C-0.96125481 2.25835959 -0.96125481 2.25835959 0 0 Z " fill="#7FA086" transform="translate(387,336)"/>
<path d="M0 0 C1.98 0.99 3.96 1.98 6 3 C5.360625 3.12375 4.72125 3.2475 4.0625 3.375 C3.381875 3.58125 2.70125 3.7875 2 4 C1.67 4.66 1.34 5.32 1 6 C0.01 4.68 -0.98 3.36 -2 2 C-1.34 2 -0.68 2 0 2 C0 1.34 0 0.68 0 0 Z " fill="#8FA48D" transform="translate(173,335)"/>
<path d="M0 0 C1.875 0.3125 1.875 0.3125 4 1 C4.66 1.99 5.32 2.98 6 4 C5.34 4 4.68 4 4 4 C3.67 4.66 3.34 5.32 3 6 C0 2.25 0 2.25 0 0 Z " fill="#7D9D84" transform="translate(197,332)"/>
<path d="M0 0 C0.33 0 0.66 0 1 0 C1 3.96 1 7.92 1 12 C-0.32 11.67 -1.64 11.34 -3 11 C-2.67 10.34 -2.34 9.68 -2 9 C-1.67 9 -1.34 9 -1 9 C-0.67 6.03 -0.34 3.06 0 0 Z " fill="#A2B59D" transform="translate(196,260)"/>
<path d="M0 0 C-4.73778043 2.36889021 -6.63970918 3.04875255 -12 2 C-8.09971775 -0.60018816 -4.52565431 -0.15085514 0 0 Z " fill="#9CB39A" transform="translate(197,363)"/>
<path d="M0 0 C1.65 0.99 3.3 1.98 5 3 C4.67 3.66 4.34 4.32 4 5 C2.35 4.67 0.7 4.34 -1 4 C-0.67 2.68 -0.34 1.36 0 0 Z " fill="#779B7E" transform="translate(178,357)"/>
<path d="M0 0 C1.65 0 3.3 0 5 0 C5.33 1.32 5.66 2.64 6 4 C4.125 3.6875 4.125 3.6875 2 3 C1.34 2.01 0.68 1.02 0 0 Z " fill="#75987F" transform="translate(191,339)"/>
<path d="M0 0 C0.66 0.66 1.32 1.32 2 2 C1.01 2 0.02 2 -1 2 C-0.67 1.34 -0.34 0.68 0 0 Z " fill="#DCD4BE" transform="translate(225,115)"/>
<path d="M0 0 C0.66 0 1.32 0 2 0 C2 0.66 2 1.32 2 2 C1.34 2 0.68 2 0 2 C0 1.34 0 0.68 0 0 Z " fill="#EBE4CD" transform="translate(350,591)"/>
<path d="M0 0 C0.66 0 1.32 0 2 0 C2 0.66 2 1.32 2 2 C1.34 2 0.68 2 0 2 C0 1.34 0 0.68 0 0 Z " fill="#E5DCCA" transform="translate(574,435)"/>
<path d="M0 0 C0.66 0.66 1.32 1.32 2 2 C1.01 2.495 1.01 2.495 0 3 C0 2.01 0 1.02 0 0 Z " fill="#ECE9CE" transform="translate(175,350)"/>
<path d="M0 0 C0.99 0.495 0.99 0.495 2 1 C1.01 1.495 1.01 1.495 0 2 C0 1.34 0 0.68 0 0 Z " fill="#ECE7CE" transform="translate(403,328)"/>
<path d="M0 0 C2 1 2 1 2 1 Z " fill="#EEEACE" transform="translate(410,336)"/>
<path d="" fill="#F3E9D0" transform="translate(0,0)"/>
<path d="" fill="#ECE8CE" transform="translate(0,0)"/>
<path d="" fill="#E9E7D3" transform="translate(0,0)"/>
<path d="" fill="#ECEACE" transform="translate(0,0)"/>
<path d="" fill="#E9E5CF" transform="translate(0,0)"/>
<path d="" fill="#EBEBCF" transform="translate(0,0)"/>
<path d="" fill="#EBEACE" transform="translate(0,0)"/>
<path d="" fill="#E9E8CD" transform="translate(0,0)"/>
<path d="" fill="#E9E7D2" transform="translate(0,0)"/>
<path d="" fill="#EAE9CF" transform="translate(0,0)"/>
<path d="" fill="#E8E8CF" transform="translate(0,0)"/>
<path d="" fill="#E9E2D0" transform="translate(0,0)"/>
<path d="" fill="#E9E1D1" transform="translate(0,0)"/>
<path d="" fill="#E8E6D2" transform="translate(0,0)"/>
<path d="" fill="#E7E5CF" transform="translate(0,0)"/>
<path d="" fill="#EDEBCF" transform="translate(0,0)"/>
<path d="" fill="#EBE7CD" transform="translate(0,0)"/>
<path d="" fill="#EFEBCE" transform="translate(0,0)"/>
<path d="" fill="#ECE6CF" transform="translate(0,0)"/>
<path d="" fill="#EBE9CF" transform="translate(0,0)"/>
<path d="" fill="#E8E7D0" transform="translate(0,0)"/>
<path d="" fill="#EDE9CE" transform="translate(0,0)"/>
<path d="" fill="#E8E4CD" transform="translate(0,0)"/>
<path d="" fill="#F5F4D4" transform="translate(0,0)"/>
<path d="" fill="#EBE8CF" transform="translate(0,0)"/>
<path d="" fill="#EDE8CF" transform="translate(0,0)"/>
<path d="" fill="#EEE8CD" transform="translate(0,0)"/>
<path d="" fill="#E9E6CF" transform="translate(0,0)"/>
<path d="" fill="#EEE7CD" transform="translate(0,0)"/>
<path d="" fill="#EAE5CF" transform="translate(0,0)"/>
<path d="" fill="#E9E4D1" transform="translate(0,0)"/>
<path d="" fill="#EAE7CF" transform="translate(0,0)"/>
<path d="" fill="#F9F2E1" transform="translate(0,0)"/>
<path d="" fill="#F9F8DF" transform="translate(0,0)"/>
</svg>
